<svg id="Lager_1" data-name="Lager 1" xmlns="http://www.w3.org/2000/svg" viewBox="0 0 512 512"><defs><style>.cls-1{fill:#79564a;}.cls-2{fill:#fff;}</style></defs><rect class="cls-1" width="512" height="512" rx="58.62"/><path class="cls-2" d="M386.67,102.2c-11.86,6.58-35.2,27.74-35,26.84,5.76-22.18,22.75-37.52,43.79-53.11,13-9.86,24.94-16.76,24.58-16.64C383.65,71.51,351.71,94,340.79,127.72l-.45.24c-14.78-4.24-39.17,11-27.75,38.06,2.4,6.78,11.43,14.72,9.33,22-18.55,49.93-26.54,83.63-86,132.11-6.2,3.93-14.22,10.75-23.81,14.74-2.78,1.16-5.86-2.59-3.2-4.48,24.17-17.15,41.89-29.59,61.94-57.33,19.78-27.37,7.49-36.77-2.31-36.17-52,3.15-97.27,34.62-111.59,47.48-.39.36-23.34-18.44-27.83-22.55-5.43-5-30.47-31.44-28,30.33.25,6.1.81,11.83,1,17.91.5,15.36.06,18.26-1.51,19.88C88,343,73.51,358.78,60.7,371.61l17.66-.4c23.53-1,31-4.84,31.56-2,2.14,10.42,4.31,18,4.71,32.33a5.56,5.56,0,0,1-5,5.49c-13.18,1.36-21.16,4-31.61,7-10.62,4.09-9.09,5.61-8.56,6.87,0,0,40.36-1.8,53.78-2.9.27,0,6.74-1,6.17-10.77-.77-13.35-2.44-24.64-3.89-42.08-2.83-.63,24.48-2.08,51.26-17.64,3.82-1.9,6.75,2.72,7.82,3.67,2.75,2.48,9,9.3,19.05,8.31,31.8-3.12,79.42-47.8,104.35-98.65,0,0,10-23.28,10-22.7-.42,17.73-7.53,36.56-13.05,52.55a3.28,3.28,0,0,0,4.67,4.1c37.65-21.17,63.81-74.39,66.3-64.67,7.93,31-20.5,62.33-28.88,88.61-4.1,12.85,25.87-1.33,18.41-10.07-3.33-3.91,5.88-17.62,17.87-36.77,12.35-19.75,7.36-49.13-3.84-76.45a2.48,2.48,0,0,0-4.5-.11A205.79,205.79,0,0,1,354.15,230c-8.25,11.49-12.92,19.11-26.81,30.24-.38.3,4.82-23.29,3.52-35s-.33-16.44,1.32-27.12c.05-.38,2.15-9,2.47-8.83.64.33,1,.48,1.25.67,13.53,8.65,26.45-4.63,26.89-17.24a48.25,48.25,0,0,0-8-28.29.62.62,0,0,1,0-.69c15-22.23,39.23-37.19,54.81-45.29,13.2-5.3,37.85-16,37.42-16C435.48,81.65,412.34,88,386.67,102.2Zm-268,205.33c-.47-3.63-1.16-11.1-1.35-14.25-1.49-24,1.7-21.92,7.85-11.84,1.93,3.17,3.63,5.58,6,9.62,4.78,8.26,4.33,8.17-.71,11.15C126.15,304.73,119.44,313.52,118.66,307.53ZM336.52,175.36c-9.44-6-18.64-21.42-9.4-30.11,7.42-7,21.33,3,23.9,20.33C352.22,173.7,342.39,179.08,336.52,175.36Z" transform="translate(0 0)"/><path class="cls-2" d="M68.88,421.85l-.34-.8a2.72,2.72,0,0,1-.2-2.27c.48-1.18,2-2.78,9.38-5.63l3.68-1.07c8.71-2.53,16.22-4.72,27.62-5.94l.35,0c2.57-.22,3.8-.37,4.39-.47-.05-14.4-1.74-22.22-3.69-31.25-.35-1.62-.7-3.28-1.06-5-.13-.6-3.19-.15-6.74.38a210.26,210.26,0,0,1-23.87,2.38l-20,.46L60,371C67.67,363.31,76,354.56,84,346.09c5.6-5.91,10.88-11.49,16-16.75,1.34-1.38,1.73-4.49,1.25-19.2-.11-3.23-.32-6.42-.53-9.51-.18-2.72-.36-5.53-.48-8.39-1-24,2-37.23,9-40.45s15.85,5,19.61,8.58l.86.81c4.64,4.25,23.71,19.8,27.07,22.11C174.05,268,218.84,239,268.46,236c4.17-.25,9.58,1.22,12.28,6.13s3.27,14.31-9.17,31.52c-19.93,27.57-37.32,39.91-61.38,57l-.77.54A1.25,1.25,0,0,0,209,333a2.24,2.24,0,0,0,2.71,1.07c6.72-2.79,12.61-7,17.8-10.64,2.07-1.47,4-2.85,5.83-4,53.78-43.83,65.11-75.05,80.79-118.27,1.58-4.35,3.19-8.81,4.9-13.41,1.22-4.26-1.93-9-5-13.67a39.16,39.16,0,0,1-4.34-7.73c-6.7-15.86-.78-26.07,3.35-30.74,6.33-7.17,16.77-10.77,25-8.68,10-30.31,38.33-54.63,79.71-68.51l.79-.26.36.75c.36.77-.08,1-1.38,1.83a281.45,281.45,0,0,0-23.49,16c-21.82,16.16-36.69,30.32-42.71,50l3.4-2.85c7.43-6.24,21.25-17.85,29.47-22.41,26.68-14.81,49.8-20.64,60.9-19.85l.74.06.12.73c.13.88.13.88-14.35,7.1C424.55,93.34,415.71,97,410,99.34,393.17,108.09,370,123,355.71,144.12a49,49,0,0,1,8,28.66c-.27,7.77-5,15.59-11.59,19-5.35,2.81-11.29,2.44-16.73-1l-.3-.17c-.64,2-1.91,7.17-2,7.7l-.35,2.26c-1.43,9.2-2.15,13.83-.95,24.61,1,9.07-1.84,25.15-3,32l.61.25c10.38-8.73,15.08-15.34,21.4-24.25.84-1.18,1.71-2.41,2.63-3.69a204.26,204.26,0,0,0,20.76-34.55,3.22,3.22,0,0,1,3-1.92,3.88,3.88,0,0,1,3.35,2.53c9.29,22.83,17.46,54.7,3.59,76.87l-3.26,5.19C371.58,292.29,363.58,305,366.16,308c2.12,2.49,1.87,5.62-.71,8.81-4,4.95-13.76,9.59-17.87,7.37-1.05-.56-2.61-2.06-1.43-5.78,2.75-8.6,7.54-17.6,12.62-27.13,10.58-19.86,21.52-40.4,16.25-61a1,1,0,0,0-.21-.48h-.06c-1.48,0-6.8,7-11.95,13.67-12,15.68-30.15,39.38-52.72,52.07a4.14,4.14,0,0,1-4.77-.39,4.29,4.29,0,0,1-1.24-4.82c.48-1.4,1-2.82,1.48-4.26,4.7-13.49,10-28.6,11.24-43.17-2.1,4.76-5.44,12.51-7.91,18.25-24.82,50.63-72.95,96.05-105.11,99.21-9.6.95-15.94-5-19-7.81-.29-.27-.55-.52-.79-.73s-.46-.48-.77-.83c-1.68-1.92-3.66-3.87-6-2.7-20.27,11.78-40.84,15.5-48.58,16.91-.8.14-1.57.28-2.11.39.62,7.38,1.26,13.53,1.88,19.49.82,7.79,1.52,14.52,2,22,.63,10.8-7,11.74-7,11.75-13.28,1.08-53.4,2.89-53.81,2.9Zm39.05-54.61c1.76,0,2.64.46,2.9,1.77.36,1.72.71,3.37,1.06,5,2,9.28,3.73,17.3,3.73,32.34,0,1-.51,1.16-6.1,1.63l-.3,0c-11.24,1.2-18.68,3.37-27.3,5.88l-3.61,1c-6.58,2.54-8,4-8.24,4.57a.55.55,0,0,0,0,.45c5.21-.23,40.77-1.86,53.1-2.87,0,0,5.84-.79,5.32-9.78-.43-7.48-1.13-14.19-1.95-22-.6-5.71-1.27-12.18-1.9-19.64a1,1,0,0,1-.24-.66c0-.9.38-1,3.89-1.61,7.65-1.38,28-5.07,48-16.71,3.87-1.94,6.86,1.48,8.29,3.11a7.61,7.61,0,0,0,.62.67l.81.76c3.06,2.86,8.76,8.18,17.53,7.32,31.6-3.11,79-48.06,103.6-98.14,0,0,2.43-5.67,4.89-11.33,5.23-12.06,5.22-12.07,6.12-11.88l.75.17,0,.78c-.39,16.32-6.36,33.45-11.63,48.57L305.83,291a2.47,2.47,0,0,0,.67,2.78,2.29,2.29,0,0,0,2.66.19c22.24-12.5,40.25-36,52.16-51.57,8.1-10.57,11.48-14.84,13.89-14.35a2.18,2.18,0,0,1,1.61,1.84c5.45,21.27-6.16,43.07-16.41,62.3-5,9.46-9.79,18.39-12.48,26.82-.6,1.87-.42,3.07.53,3.58,2.8,1.51,11.47-1.86,15.54-6.9,2-2.49,2.26-4.65.74-6.43-3.47-4.07,3.31-14.84,14.53-32.68q1.59-2.52,3.26-5.19c10.5-16.78,9.17-43.47-3.74-75.17a2,2,0,0,0-1.68-1.38,1.36,1.36,0,0,0-1.29.88,205.6,205.6,0,0,1-20.92,34.82l-2.62,3.68C345.37,244,340.37,251,327.92,261l-.5.4-.57-.32c-.61-.37-.61-.37.08-4.29,1.19-6.76,4-22.59,3-31.37-1.23-11-.45-16,1-25.11l.36-2.26c0-.09,1.81-8.95,2.94-9.52l.43-.22.81.41a10.35,10.35,0,0,1,1,.52c6.22,4,11.51,2.72,14.86,1,6-3.14,10.35-10.32,10.6-17.44a47.18,47.18,0,0,0-7.76-27.65,1.76,1.76,0,0,1,0-1.91c14.54-21.49,38-36.61,55.09-45.51,10-4,26.35-11,33.66-14.26-11.89.66-32.38,6.66-55.73,19.62l-.46-.81.46.81c-8.07,4.48-21.8,16-29.18,22.22-6,5.07-6,5.07-6.74,4.62l-.57-.36.17-.69c5.58-21.49,21.68-37,44.14-53.61,6.51-5,12.74-9.15,17.32-12.09-36.62,14.11-61.54,36.95-70.59,64.91a1.31,1.31,0,0,1-1.63.83c-7.67-2.17-17.59,1.19-23.59,8-3.84,4.35-9.33,13.87-3,28.83a37.16,37.16,0,0,0,4.16,7.38c3.28,5,6.68,10.13,5.2,15.29-1.73,4.66-3.35,9.11-4.92,13.46-15.79,43.5-27.2,74.94-81.41,119.11l-.09.07c-1.77,1.12-3.73,2.5-5.79,4-5.28,3.73-11.25,8-18.16,10.84a4.1,4.1,0,0,1-5.06-1.89,3.09,3.09,0,0,1,1-4.21l.77-.54c23.92-17,41.2-29.25,60.95-56.57,12.5-17.29,11-25.92,9.05-29.53-2.28-4.15-6.95-5.39-10.54-5.17-49.58,3-94.3,32.22-111,47.25-.76.67-.88.78-13.59-9.58-5.89-4.79-13.1-10.79-15.5-13l-.88-.82c-3.48-3.28-11.63-11-17.56-8.25-4.27,2-9.11,10.24-8,38.69.12,2.83.3,5.63.48,8.33.21,3.11.42,6.32.53,9.58.51,15.74.06,18.67-1.77,20.56-5.09,5.24-10.37,10.82-16,16.73-7.47,7.87-15.16,16-22.35,23.26l15.35-.35A211.15,211.15,0,0,0,102,367.92,46.65,46.65,0,0,1,107.93,367.24Zm232-239.81ZM120.18,310.51a2.07,2.07,0,0,1-.78-.14c-.91-.34-1.47-1.26-1.67-2.72h0c-.46-3.56-1.15-11.08-1.35-14.32-1-15.69.08-19.24,2.09-19.87s4.21,2.14,7.49,7.5c.73,1.2,1.43,2.29,2.14,3.4,1.17,1.83,2.37,3.71,3.83,6.23,4.71,8.15,4.66,9.05-.59,12.15l-.46.27a33.92,33.92,0,0,0-4.14,3.3C124.21,308.54,122,310.51,120.18,310.51Zm-.6-3.1c.11.81.32,1.16.47,1.22.88.34,3.75-2.2,5.46-3.71a33.59,33.59,0,0,1,4.42-3.51l.46-.27c2.2-1.3,3.09-1.86,3.13-2.7.06-1.17-1.23-3.5-3.2-6.92-1.44-2.48-2.63-4.35-3.79-6.15-.72-1.13-1.43-2.23-2.16-3.44-4-6.52-5.09-6.77-5.34-6.69s-1.82,1.42-.79,18c.19,3.21.88,10.67,1.34,14.19ZM340.86,177.5a9,9,0,0,1-4.83-1.35c-6.16-3.9-12.81-12.15-13.6-20.39a13.11,13.11,0,0,1,4.05-11.19c2.66-2.5,6.21-3.15,10-1.83,6.14,2.13,13.6,10.15,15.46,22.7a10.15,10.15,0,0,1-4.83,10.13A11.51,11.51,0,0,1,340.86,177.5ZM337,174.58c2.53,1.6,6.09,1.38,9.08-.57a8.32,8.32,0,0,0,4-8.29c-1.74-11.79-8.59-19.27-14.22-21.22a7.61,7.61,0,0,0-8.11,1.43,11.1,11.1,0,0,0-3.47,9.65C325,163.14,331.39,171,337,174.58Z" transform="translate(0 0)"/></svg>